<svg xmlns="http://www.w3.org/2000/svg" width="16" height="16" viewBox="0 0 16 16" fill="#C5C5C5">
  <!-- Scroll/instruction document with lines -->
  <path d="M3 1.5A1.5 1.5 0 0 1 4.5 0h5.586a1 1 0 0 1 .707.293l2.414 2.414a1 1 0 0 1 .293.707V13.5a1.5 1.5 0 0 1-1.5 1.5h-7.5A1.5 1.5 0 0 1 3 13.5V1.5z"/>
  <rect x="5.5" y="5" width="5" height="1" rx="0.5" fill="#1e1e1e"/>
  <rect x="5.5" y="7.5" width="5" height="1" rx="0.5" fill="#1e1e1e"/>
  <rect x="5.5" y="10" width="3.5" height="1" rx="0.5" fill="#1e1e1e"/>
</svg>
