<svg xmlns="http://www.w3.org/2000/svg" width="16" height="16" viewBox="0 0 16 16" fill="none">
  <!-- Kiro: ghost mascot -->
  <path d="M8 1C5.24 1 3 3.24 3 6v5.5c0 .28.22.5.5.5s.5-.55.5-1v-.5c0-.28.22-.5.5-.5s.5.22.5.5v1c0 .45.45 1 .5 1s.5-.55.5-1v-.5c0-.28.22-.5.5-.5s.5.22.5.5v1c0 .45.45 1 .5 1s.5-.55.5-1v-.5c0-.28.22-.5.5-.5s.5.22.5.5v1c0 .45.45 1 .5 1s.5-.55.5-1V6c0-2.76-2.24-5-5-5z" fill="#424242"/>
  <circle cx="6.2" cy="6.5" r="1.2" fill="white"/>
  <circle cx="6.2" cy="6.5" r="0.6" fill="#424242"/>
  <circle cx="9.8" cy="6.5" r="1.2" fill="white"/>
  <circle cx="9.8" cy="6.5" r="0.6" fill="#424242"/>
</svg>
